<?xml version="1.0" encoding="utf-8"?>
<!DOCTYPE svg PUBLIC "-//W3C//DTD SVG 1.1//EN" "http://www.w3.org/Graphics/SVG/1.1/DTD/svg11.dtd">
<svg  version="1.1" xmlns="http://www.w3.org/2000/svg" xmlns:xlink="http://www.w3.org/1999/xlink"
	 width="700" height="507" viewBox="2.585 0.17 700 507" font-family="'Times New'" font-size="36">
<rect x="2.585" y="0.17" fill="#AFB1FF" width="700" height="507"/>
<path fill="#3FFF64" stroke="#00BFAE" d="M221.585,252.17c0.814-5.795,28.172-8.005,34.849-8.151c-1.353-6.871,4.949-6.954,5-12.697
	c-1.174-0.004-2.524-0.12-3.697-0.303c-0.601-11.842-1.299-24.997-0.151-36.849c0.505-5.219,2.455-9.896,3.274-14.948
	c0.721-4.443-1.172-15.538,1.632-18.826c6.503-7.627,30.989-0.206,40.091-3.007c11.315-3.481,18.467-13.396,31.094-5.589
	c-2.373-1.894-5.34-4.253-5.936-7.482c14.326,0.262,29.198-13.543,41.897-4.199c4.038,2.971,6.19,12.368,9.678,16.322
	c2.58,2.926,5.941,1.487,8.071,3.929c1.9,2.179,2.247,7.536,3.953,10.046c5.521,8.12,23.751,20.513,11.492,30.003
	c-5.726,4.432-14.505,3.944-20.493,9.503c-3.352,3.111-10.548,11.245-12.778,15.199c-4.215,7.475-0.782,16.766-1.979,25.045
	c-0.926,6.412-3.9,13.236-6.996,19.003c-4.743,8.838-7.858,8.741-17,12c-7.358,2.623-12.901,7.26-20,11.247
	c-8.322,4.675-14.519,4.753-24,4.753c-9.721,0-13.098,1.369-21.223,4.777c-7.854,3.295-14.943,3.813-23.777,3.223
	c-10.255-0.686-11.41-6.031-19.948-9.048c-6.786-2.398-15.087,3.549-17.1-6.007c-1.007-4.784,7.853-12.693-3.8-13.09
	c2.524-7.454,4.083-6.599,2.626-15.609c-1.288-7.968-3.183-8.894,8.048-8.42c0.634-1.285,1.017-2.445,1.174-3.826"/>
<path fill="#3FFF64" stroke="#00BFAE" d="M516.585,0.17c0.995,2.743,2.507,5.311,4.826,7.174
	c0.526,11.975,20.497,10.896,6.226,27.048c-8.217,9.3-26.646,10.276-24.9,23.603c7.046,4.01,15.769,0.618,23.071,2.952
	c9.375,2.997,8.953,8.769,12.048,16.952c2.865,7.577,7.483,12.796,5.53,22.048c-1.389,6.581-3.891,15.143-7.526,20.422
	c-4.442,6.45-13.422,7.645-17.049,14.05c-2.881,5.089-2.113,17.793-1.226,23.751c1.907,12.801,8.03,25.323,13.195,37.003
	c3.246,7.34,2.381,14.953,4.805,22.945c2.426,8,8.994,12.497,13.747,19.297c3.647,5.218,9.027,13.65,11.002,19.731
	c2.798,8.618-0.776,16.163-0.772,24c0.005,7.028,2.857,18.211,5.246,24.801c2.54,7.011,9.663,10.977,13.023,18
	c5.339,11.161,14.257,25.293,11.508,38.199c-2.736,12.854-17.061,19.64-27.73,24.995c-4.764,2.391-15.899,4.021-18.772,8.279
	c-5.541,8.211,3.226,11.095,10.598,8.903c2.604,14.864-21.346,22.893-33.849,22.846c-9.041-0.033-15.855,2.186-24.251-1.726
	c-9.343-4.354-10.88-5.821-21.749-5.274c-13.369,0.673-37.176,5.121-46.753-3.025c-5.467-4.649-8.049-8.305-15.247-10.975
	c-6.349-2.354-13.595,0.846-20,2c-3.016,0.543-11.675,2.298-15,2c-5.553-0.497-6.039,0.087-11-3c-9.852-6.129-6.498-3.52-16-1
	c-5.457,1.446-19.486,8.073-21-1c-1.437-8.613,12.672-10.665,18-13c13.88-6.082,27.893-16.987,44-16c9.572,0.587,16.716,7.733,26,7
	c9.293-0.733,12.755-7.051,7.465-15.023c-4.65-7.006-16.855-11.688-24.517-14.228c-9.792-3.247-13.468-4.568-19.147-12.526
	c-7.249-10.157-5.065-9.715,6.176-13.223c8.948-2.792,12.743-5.965,16.02-15.004c1.718-4.736-0.48-5.93,2.984-9.996
	c3.697-4.339,8.007-3.172,10.043-8.977c2.732-7.793-0.605-17.7,2.98-25.023c5.205-10.633,12.847-6.759,23.048-3
	c11.787,4.344,13.612,1.042,14.171-10.223c0.376-7.58,2.037-15.138,1.905-22.626c1.435,0.11,3.343-0.504,4.772-0.303
	c0.795-6.064-11.904-29.905,2.974-32.023c-3.237-21.523-26.955-2.165-37.897-8.973c-8.851-5.508-4.037-34.159-2.131-42.728
	c-10.465,3.7-16.893,4.645-23.846-3.125c-2.052-2.293-4.241-9.916-5.247-12.948c-2.084-6.276-6.127-4.328-5.753-10.052
	c0.493-7.525,9.03-9.546,13-17c1.737-3.262,1.076-11.9,2.023-14.977c1.212-3.94-1.385-9.138,0.128-13.023
	c5.451-14.004,32.102-22.708,42.781-31.052c7.549-5.898,14.098-9.668,20.293-15.893c5.543-5.569,10.952-10.776,16.723-15.306
	c7.696-6.042,17.332-10.786,26.052-13.749"/>
<path fill="#3FFF64" stroke="#00BFAE" d="M403.585,34.17c3.396-4.799,10.12-15.489,9.174-22.826
	c7.575-3.182,13.853,11.804,10.85,18.849c-1.807,4.237-18.781,18.474-20.023,7.977"/>
<path fill="#3FFF64" stroke="#00BFAE" d="M538.585,17.17c-2.182-3.04-2.441-6.552-0.855-9.849c0.414,0.063,2.295,0.066,2.708,0.003
	c0.597,3.351,0.23,7.507-0.853,9.845"/>
<path fill="#3FFF64" stroke="#00BFAE" d="M321.085,507.17c-2.474-9.668,21.875-9.857,28.277-9.274
	c6.323,0.577,13.844,4.492,20.251,6.249c6.915,1.897,16.271,3.025,25.972,3.025c9.586,0,19.322,0.332,28.849-0.151
	c-1.227-6.478,3.197-7.678,4.199-12.853c1.172-6.048-3.134-10.246-3.044-15.051c0.235-12.624,11.334-6.468,18.243-0.192
	c6.706,6.09,12.098,10.99,20.725,13.275c5.935,1.572,27.163,7.022,25.18-4.877c8.776,0.289,15.188-6.265,23.849-7.151
	c8.154-0.835,17.908,2.143,25.274-1.703c4.618-2.41,13.063-10.935,14.749-15.297c2.309-5.973-2.874-13.383,4.706-18.271
	c4.752-3.064,18.915-1.72,25.045-2.952c3.712-0.746,5.479-1.557,8.975-1.526c4.298,0.038,6.018,3.438,10.271-0.283
	c2.811-2.458,1.831-8.106,4.235-10.769c3.333-3.691,7.781-2.959,11.793-5.203c5.565-3.113,10.302-7.602,15.927-11.044
	c7.522-4.604,21.176-6.529,24.826-15.952c2.234-5.769,8.712-23.188,4.103-28c2.847-4.151,6.432-4.155,11.101-5
	c8.646-1.563,6.815,0.711,11.773-5c1.387-1.597-0.606-4.511,0.929-6.297c1.72-2.001,5.429-0.556,7.017-1.874
	c3.34-2.771,4.329-6.838,8.277-8.329c0,16,0,33.5,0.004,48.5c0.003,10.769-0.004,116-0.004,116S339.085,506.17,321.085,507.17"/>
<path fill="none" stroke="#2210D2" stroke-width="5" d="M162.585,485.17c65-9,222-58,263-87s81-58,72-102"/>
<polygon fill="#2210D2" points="187.585,507.17 198.585,479.17 168.585,484.17"/>
<polygon fill="#2210D2" points="245.585,468.17 261.585,489.17 270.585,460.17"/>
<polygon fill="#2210D2" points="318.585,445.17 336.585,462.17 340.585,434.17"/>
<polygon fill="#2210D2" points="380.585,421.17 400.585,437.17 402.585,410.17"/>
<polygon fill="#2210D2" points="442.585,388.17 464.585,398.17 463.585,371.17"/>
<polygon fill="#2210D2" points="484.585,348.17 505.585,350.17 496.585,329.17"/>
<path fill="none" stroke="#FF0000" stroke-width="5" d="M498.585,298.17c35,33,75,102,89,115s69,76,116,78"/>
<path fill="#FF0000" d="M517.585,316.17c0,0,14-8,21,0s-13,27-6,19"/>
<path fill="#FF0000" d="M554.585,366.17c0,0,10-6,17,1s-2,21-2,21"/>
<path fill="#FF0000" d="M587.585,413.17c0,0,11-10,21-2s-1,20-1,20"/>
<path fill="#FF0000" d="M626.585,451.17c-1,0,12.055-9.747,17-7c9,5,4,22,4,22"/>
<path fill="#FF0000" d="M667.585,480.17c0,0,9-16,17-11s8,18,8,18"/>
<path fill="none" stroke="#003CFF" stroke-width="3" d="M78.585,159.17c-12,26,11,41,13,44s18,16,44,12"/>
<polygon fill="#003CFF" points="128.947,227.435 131.92,215.734 125.568,205.47 153.284,212.447"/>
<path fill="none" stroke="#003CFF" stroke-width="3" d="M203.585,284.17c0,0,47-13,58-21s29-26,29-26"/>
<polygon fill="#003CFF" points="292.485,250.986 287.963,239.792 276.771,235.272 303.248,224.508"/>
<path fill="none" stroke="#003CFF" stroke-width="3" d="M429.585,144.17c-20-17-128-52-170-43"/>
<polygon fill="#003CFF" points="265.495,88.54 263.21,100.394 270.152,110.269 242.075,104.922"/>
<path fill="none" stroke="#003CFF" stroke-width="3" d="M359.585,304.17c14-7,40-23,44-28"/>
<polygon fill="#003CFF" points="406.999,289.692 401.269,279.066 389.646,275.809 414.771,262.187"/>
<path fill="none" stroke="#003CFF" stroke-width="3" d="M610.585,319.17c20-29,21-58,10-87"/>
<polygon fill="#003CFF" points="633.963,236.107 621.899,235.637 613.185,243.989 614.234,215.427"/>
<line fill="none" stroke="#003CFF" stroke-width="3" x1="341.585" y1="401.17" x2="388.585" y2="400.17"/>
<polygon fill="#003CFF" points="380.397,411.459 384.878,400.25 379.925,389.242 406.488,399.79"/>
<line fill="none" stroke="#FF0000" stroke-width="3" x1="454.585" y1="446.17" x2="486.585" y2="445.17"/>
<polygon fill="#FF0000" points="478.511,456.541 482.879,445.287 477.816,434.329 504.483,444.611"/>
<line fill="none" stroke="#FF0000" stroke-width="3" x1="481.585" y1="395.17" x2="517.585" y2="392.17"/>
<polygon fill="#FF0000" points="510.111,403.944 513.891,392.478 508.266,381.797 535.431,390.683"/>
<polygon fill="#6301F6" points="197.585,184.17 209.585,169.17 218.585,188.17"/>
<path fill="#6301F6" d="M259.585,191.17c0,0,10.5-13,18.5-11s9.5,17,9.5,17"/>
<polygon fill="#6301F6" points="329.085,210.17 345.585,197.17 346.585,216.17"/>
<path fill="#6301F6" d="M392.585,233.17c0,0,10-10,17-7s7,17.5,7,17.5"/>
<polygon fill="#6301F6" points="455.085,264.17 473.585,258.17 471.085,276.17"/>
<path fill="none" stroke="#DE1DF4" stroke-width="4" d="M139.585,186.17c41-4,128,5,166,18s128,39,193,94"/>
<text transform="matrix(1 0 0 1 148.585 190.1704)">L</text>
<path fill="none" stroke="#000000" stroke-width="5" d="M106.834,181.921c0-20.413,12.405-28.545,34-32
	c15.23-2.437,29.841,1.758,46.751,4.197c14.036,2.024,24.184,14.379,28.249,26.803c4.828,14.752,4,34-11.249,33.249
	c-9.887-0.487-20.449-1.359-30.055-1.726c-13.696-0.523-29.136-2.226-37.696-4.523C120.749,203.605,100.971,205.552,106.834,181.921
	"/>
<path fill="none" stroke="#000000" stroke-width="5" d="M103.585,235.17c-28-18-46.774-46.592-33.278-78.278
	c12.66-29.721,52.478-38.722,81.326-38.722c15.579,0,34.416,0.004,49.948,0.003c46.003-0.003,97.716,42.953,99.003,69.997
	c1,21-13.457,30.396-18.729,33.248c-13.856,7.494-66.094,24.891-88.271,27.752C162.585,253.17,119.585,244.17,103.585,235.17"/>
<path fill="none" stroke="#000000" stroke-width="5" d="M64.585,92.17c-17,13-25.676,24.415-29.048,32.246
	c-11.952,27.754-13.952,51.754-2.952,75.754c12.241,26.708,44.071,51.375,66.774,62.277c31.036,14.904,59.885,19.723,94.456,19.723
	c32.942,0,54.771,4,100.771-1c29.103-3.163,34.192-5.604,50.023-7.974c7.427-1.111,36.618-5.265,43.977-6.026c29-3,37-8,35-23.997
	c-1.699-13.593-6.414-32.351-15.249-41.977c-21.296-23.203-44.286-51.166-72.95-64.828c-8.16-3.889-16.982-11.644-24.801-17.199
	c-7.816-5.555-13.756-9.483-21.997-14.301c-7.589-4.438-36.757-15.288-43.003-18.699c-15.256-8.333-27.349-9.413-44.948-12.052
	c-16.269-2.438-33.281-1.948-50.052-1.948c-17.781,0-32.154,0.174-47.726,5.274C95.922,79.716,77.585,79.17,64.585,92.17"/>
<path fill="none" stroke="#000000" stroke-width="5" d="M1.585,315.17c50,41,81,45,118,41s107-23,120-25s105-18,117-20s91,9,121-19
	s34-48,14-106s-11-54,6-79s59-26,82-30s83-8,114-7s10-2,10-2"/>
<path fill="none" stroke="#000000" stroke-width="5" d="M2.585,401.17c74,39,116,21,172,17s152-43,169-54s75-27,98-25s22,15,36,17
	s12-4,26-4s33,6,45,1s22-35,26-57s-14-55-14-76s34-60,46-65s46-20,77-18s20-3,20-3"/>
<path fill="none" stroke="#000000" stroke-width="5" d="M3.585,478.17c22,1,32,2,59,1s76,0,107-8s75-14,92-25s59-19,74-17s42,6,63,2
	s113-19,124-21s68,0,94-19s35-71,43-96s28-51,43-56"/>
<rect x="598.585" y="25.17" fill="#CECECE" width="65" height="121"/>
<line fill="none" stroke="#000000" stroke-width="3" x1="615.585" y1="138.17" x2="627.585" y2="85.17"/>
<path d="M626.629,80.111c-1.704,3.004-3.076,4.897-4.7,7.25l9.84,2.228c-0.23-1.025-0.876-5.122-1.119-8.567
	c-0.262-3.688-0.267-6.979-0.062-9.066C629.874,73.927,628.452,76.895,626.629,80.111z"/>
<text transform="matrix(1 0 0 1 622.585 61.1704)">N</text>
</svg>
