<?xml version="1.0" encoding="utf-8"?>
<!-- Generator: Adobe Illustrator 18.1.1, SVG Export Plug-In . SVG Version: 6.00 Build 0)  -->
<svg version="1.1" id="raycaster" xmlns="http://www.w3.org/2000/svg" xmlns:xlink="http://www.w3.org/1999/xlink" x="0px" y="0px"
	 viewBox="0 0 387.4034 303.2109" enable-background="new 0 0 387.4034 303.2109" xml:space="preserve">
<g id="raycaster-box-a">
	
		<rect x="78.5803" y="72.2427" transform="matrix(0.9749 0.2225 -0.2225 0.9749 29.4406 -27.0333)" fill="#FFFFFF" stroke="#000000" stroke-miterlimit="10" width="112.1795" height="89.7436"/>
	<line fill="none" stroke="#007F00" stroke-miterlimit="10" x1="136.5191" y1="109.9357" x2="133.1809" y2="124.5595"/>
	<line fill="none" stroke="#007F00" stroke-miterlimit="10" x1="127.5381" y1="115.5785" x2="142.1619" y2="118.9167"/>
	<g>
		<g>
			<line fill="none" stroke="#1740FF" stroke-miterlimit="10" x1="134.65" y1="117.202" x2="45.7451" y2="4.7345"/>
			<g>
				<path fill="#1740FF" d="M42.0024,0c2.5877,1.5744,6.1831,3.2236,9.0315,3.7561l-4.7977,1.5998L43.5728,9.654
					C43.7123,6.7597,42.9376,2.8806,42.0024,0z"/>
			</g>
		</g>
	</g>
	<g>
		<g>
			<line fill="none" stroke="#1740FF" stroke-miterlimit="10" x1="134.7627" y1="116.5931" x2="264.4528" y2="54.6238"/>
			<g>
				<path fill="#1740FF" d="M269.8982,52.0219c-2.108,2.1751-4.5121,5.3164-5.6617,7.9762l-0.4983-5.0328l-3.6021-3.5486
					C262.9277,52.1933,266.882,52.2963,269.8982,52.0219z"/>
			</g>
		</g>
	</g>
	<g>
		<g>
			<line fill="none" stroke="#1740FF" stroke-miterlimit="10" x1="178.6984" y1="172.5694" x2="224.4995" y2="229.6503"/>
			<g>
				<path fill="#1740FF" d="M228.2764,234.3574c-2.5991-1.5555-6.2064-3.1785-9.0586-3.6902l4.7859-1.6347l2.632-4.3174
					C226.5175,227.6104,227.3203,231.4837,228.2764,234.3574z"/>
			</g>
		</g>
	</g>
	<g>
		<g>
			<line fill="none" stroke="#1740FF" stroke-miterlimit="10" x1="135.1356" y1="116.6517" x2="5.4454" y2="178.621"/>
			<g>
				<path fill="#1740FF" d="M0,181.223c2.108-2.1751,4.5121-5.3164,5.6618-7.9762l0.4983,5.0328l3.6021,3.5486
					C6.9705,181.0516,3.0162,180.9485,0,181.223z"/>
			</g>
		</g>
	</g>
	<g>
		<g>
			
				<line fill="none" stroke="#FF0000" stroke-width="2" stroke-miterlimit="10" x1="135.1353" y1="117.5429" x2="172.0921" y2="164.1695"/>
			<g>
				<path fill="#FF0000" d="M179.5897,173.6288c-5.1795-3.142-12.3746-6.4311-18.0727-7.4886l9.5912-3.2121l5.3156-8.6033
					C176.1524,160.1139,177.7118,167.87,179.5897,173.6288z"/>
			</g>
		</g>
	</g>
	<text transform="matrix(1 0 0 1 93.6759 104.9077)" font-family="'MyriadPro-Regular'" font-size="18">A</text>
</g>
<g id="raycaster-box-b">
	
		<rect x="191.131" y="132.216" transform="matrix(-0.9477 0.3192 -0.3192 -0.9477 538.0395 265.9843)" fill="none" stroke="#000000" stroke-miterlimit="10" width="112.1795" height="89.7436"/>
	<line fill="none" stroke="#007F00" stroke-miterlimit="10" x1="249.392" y1="184.1758" x2="244.6033" y2="169.9607"/>
	<line fill="none" stroke="#007F00" stroke-miterlimit="10" x1="254.1052" y1="174.6739" x2="239.8901" y2="179.4626"/>
	<g>
		<g>
			<line fill="none" stroke="#1740FF" stroke-miterlimit="10" x1="247.1921" y1="177.0027" x2="381.7394" y2="226.5006"/>
			<g>
				<path fill="#1740FF" d="M387.4034,228.5843c-3.029,0.0085-6.9565,0.4792-9.6638,1.5123l3.2564-3.8695l0.0273-5.0564
					C382.4156,223.712,385.1017,226.6158,387.4034,228.5843z"/>
			</g>
		</g>
	</g>
	<g>
		<g>
			<line fill="none" stroke="#1740FF" stroke-miterlimit="10" x1="247.4139" y1="177.5809" x2="169.1633" y2="298.1485"/>
			<g>
				<path fill="#1740FF" d="M165.8777,303.2109c0.6621-2.9557,1.0723-6.8901,0.664-9.7589l3.0528,4.0321l4.925,1.1457
					C171.7331,299.4251,168.3068,301.4019,165.8777,303.2109z"/>
			</g>
		</g>
	</g>
	<g>
		<g>
			<line fill="none" stroke="#1740FF" stroke-miterlimit="10" x1="180.7154" y1="152.7817" x2="111.8493" y2="128.0143"/>
			<g>
				<path fill="#1740FF" d="M106.1702,125.9719c3.0288-0.0305,6.9529-0.5298,9.6525-1.5826l-3.2282,3.8931l0.0095,5.0565
					C111.1933,130.8078,108.4862,127.9236,106.1702,125.9719z"/>
			</g>
		</g>
	</g>
	<g>
		<g>
			<line fill="none" stroke="#1740FF" stroke-miterlimit="10" x1="247.0652" y1="177.7255" x2="325.3159" y2="57.1579"/>
			<g>
				<path fill="#1740FF" d="M328.6015,52.0955c-0.6621,2.9557-1.0723,6.8901-0.6639,9.7588l-3.0528-4.0321l-4.925-1.1456
					C322.7461,55.8812,326.1724,53.9044,328.6015,52.0955z"/>
			</g>
		</g>
	</g>
	<g>
		<g>
			
				<line fill="none" stroke="#FF0000" stroke-width="2" stroke-miterlimit="10" x1="246.6002" y1="176.9653" x2="190.7355" y2="156.4961"/>
			<g>
				<path fill="#FF0000" d="M179.4021,152.3435c6.0579-0.0247,13.9117-0.9765,19.3236-3.0498l-6.5028,7.7474l-0.0414,10.1129
					C189.3903,162.0751,184.0106,156.2744,179.4021,152.3435z"/>
			</g>
		</g>
	</g>
	<text transform="matrix(1 0 0 1 203.4874 188.3028)" font-family="'MyriadPro-Regular'" font-size="18">B</text>
</g>
</svg>
