<?xml version="1.0" encoding="utf-8"?>
<!-- Generator: Adobe Illustrator 18.1.1, SVG Export Plug-In . SVG Version: 6.00 Build 0)  -->
<svg version="1.1" id="profile" xmlns="http://www.w3.org/2000/svg" xmlns:xlink="http://www.w3.org/1999/xlink" x="0px" y="0px"
	 viewBox="0 0 115.2993 133.3379" enable-background="new 0 0 115.2993 133.3379" xml:space="preserve" onload="on_load(evt)">
	 <script type="text/javascript" xlink:href="../../../shared/api/epubsc_api.js" />
	 <script type="text/javascript" xlink:href="../../../shared/js/util.js" />
     <script type="text/javascript" xlink:href="../js/tw-widget-profile.js" />
<g>
	<g id="profile-pg-profile" transform="matrix(1.0 0 0 10.25 60 25)">

			<polyline id="P_Profile" style="fill:none;stroke-width:0.5;stroke:#FF0000;" stroke-linecap="butt" points="0,0 0,0" />

			<!-- line id="profile-p-profile" fill="none" stroke="#FF0000" stroke-width="0.5" x1="-22.847" y1="-2.1411" x2="-22.847" y2="-2.1411"/ -->
	</g>
	<g id="profile-p629a4f0" transform="matrix(1 0 0 1 162 201)">
		<g id="profile-u629d9b0">
			
				<rect id="profile-b629a0f0" x="-156.8361" y="-178.5267" fill="none" stroke="#000000" stroke-width="1" width="85.2019" height="107.5781"/>
		</g>
	</g>
	<g id="profile-p628f260" transform="matrix(7.044875e-016 -1 1 7.044875e-016 311 191)">
		<g id="profile-u6298ae0">
			
				<text id="profile-b6294cb0" transform="matrix(1.0546 0 0 1 100.9679 -197.3968)" font-family="'Verdana-Bold'" font-size="5.5941">Depth (m)</text>
		</g>
	</g>
	<g id="profile-p6294f10" transform="matrix(1 0 0 1 267 76)">
		<g id="profile-u62964c0">
			<polygon id="profile-b6294b10" fill="none" stroke="#000000" stroke-width="1" points="-175.7736,-53.5267 -172.3311,-53.5267 
				-172.3311,-53.5267 			"/>
		</g>
	</g>
	<g id="profile-p6292f10" transform="matrix(1 0 0 1 267 126)">
		<g id="profile-u62944d0">
			<polygon id="profile-b6292b10" fill="none" stroke="#000000" stroke-width="1" points="-175.7736,-82.0111 -172.3311,-82.0111 
				-172.3311,-82.0111 			"/>
		</g>
	</g>
	<g id="profile-p6291d90" transform="matrix(1 0 0 1 267 176)">
		<g id="profile-u62924e0">
			<polygon id="profile-b6291990" fill="none" stroke="#000000" stroke-width="1" points="-175.7736,-110.4955 -172.3311,-110.4955 
				-172.3311,-110.4955 			"/>
		</g>
	</g>
	<g id="profile-p628d4b0" transform="matrix(1 0 0 1 267 226)">
		<g id="profile-u62831f0">
			<polygon id="profile-b628d0f0" fill="none" stroke="#000000" stroke-width="1" points="-175.7736,-138.9798 -172.3311,-138.9798 
				-172.3311,-138.9798 			"/>
		</g>
	</g>
	<g id="profile-p628b4c0" transform="matrix(1 0 0 1 267 276)">
		<g id="profile-u628e660">
			<polygon id="profile-b628b0e0" fill="none" stroke="#000000" stroke-width="1" points="-175.7736,-167.4642 -172.3311,-167.4642 
				-172.3311,-167.4642 			"/>
		</g>
	</g>
	<g id="profile-p62894b0" transform="matrix(1 0 0 1 267 326)">
		<g id="profile-u628c670">
			<polygon id="profile-b62890a0" fill="none" stroke="#000000" stroke-width="1" points="-175.7736,-195.9486 -172.3311,-195.9486 
				-172.3311,-195.9486 			"/>
		</g>
	</g>
	<g id="profile-p6288160" transform="matrix(1 0 0 1 282 76)">
		<g id="profile-u628a2b0">
			<text id="profile-b6289d40" transform="matrix(1.0191 0 0 1 -184.7496 -51.8057)" font-family="'Verdana'" font-size="5.1638">0</text>
		</g>
	</g>
	<g id="profile-p627d320" transform="matrix(1 0 0 1 282 126)">
		<g id="profile-u6286d10">
			<text id="profile-b6278230" transform="matrix(1.1184 0 0 1 -184.7493 -80.29)" font-family="'Verdana'" font-size="5.1638">2</text>
		</g>
	</g>
	<g id="profile-p62834a0" transform="matrix(1 0 0 1 282 176)">
		<g id="profile-u62863d0">
			<text id="profile-b6283090" transform="matrix(1.0676 0 0 1 -184.7486 -108.7744)" font-family="'Verdana'" font-size="5.1638">4</text>
		</g>
	</g>
	<g id="profile-p62814b0" transform="matrix(1 0 0 1 282 326)">
		<g id="profile-u6284630">
			<text id="profile-b62810a0" transform="matrix(1.0491 0 0 1 -186.47 -194.2275)" font-family="'Verdana'" font-size="5.1638">10</text>
		</g>
	</g>
	<g id="profile-p6280170" transform="matrix(1 0 0 1 282 226)">
		<g id="profile-u62822b0">
			<text id="profile-b6281d40" transform="matrix(1.0191 0 0 1 -184.7496 -137.2588)" font-family="'Verdana'" font-size="5.1638">6</text>
		</g>
	</g>
	<g id="profile-p627d4f0" transform="matrix(1 0 0 1 282 276)">
		<g id="profile-u62762f0">
			<text id="profile-b627d0f0" transform="matrix(1.0676 0 0 1 -184.7486 -165.7432)" font-family="'Verdana'" font-size="5.1638">8</text>
		</g>
	</g>
	<g id="profile-p627b4e0" transform="matrix(1 0 0 1 63 71)">
		<g id="profile-u627e700">
			
				<rect id="profile-b627b0e0" x="-57.8361" y="-52.3995" fill="none" stroke="#000000" stroke-width="1" width="0" height="3.4425"/>
		</g>
	</g>
	<g id="profile-p62794f0" transform="matrix(1 0 0 1 113 70)">
		<g id="profile-u627c710">
			
				<rect id="profile-b62790f0" x="-86.3205" y="-51.8298" fill="none" stroke="#000000" stroke-width="1" width="0" height="3.4425"/>
		</g>
	</g>
	<g id="profile-p6279f70" transform="matrix(1 0 0 1 163 70)">
		<g id="profile-u627a720">
			
				<rect id="profile-b6279bd0" x="-114.8049" y="-51.8298" fill="none" stroke="#000000" stroke-width="1" width="0" height="3.4425"/>
		</g>
	</g>
	<g id="profile-p6275f30" transform="matrix(1 0 0 1 213 70)">
		<g id="profile-u62774e0">
			
				<rect id="profile-b6275b30" x="-143.2892" y="-51.8298" fill="none" stroke="#000000" stroke-width="1" width="0" height="3.4425"/>
		</g>
	</g>
	<g id="profile-p62724b0" transform="matrix(1 0 0 1 261 70)">
		<g id="profile-u62754f0">
			
				<rect id="profile-b62720a0" x="-170.6342" y="-51.8298" fill="none" stroke="#000000" stroke-width="1" width="0" height="3.4425"/>
		</g>
	</g>
	<g id="profile-p6272f70" transform="matrix(1 0 0 1 163 56)">
		<g id="profile-u62736e0">
			<text id="profile-b6272bd0" transform="matrix(1.0191 0 0 1 -116.9567 -40.4116)" font-family="'Verdana'" font-size="5.1638">0</text>
		</g>
	</g>
	<g id="profile-p626e4b0" transform="matrix(1 0 0 1 113 56)">
		<g id="profile-u62701c0">
			<text id="profile-b626e0a0" transform="matrix(1.1056 0 0 1 -89.7633 -40.4116)" font-family="'Verdana'" font-size="5.1638">-10</text>
		</g>
	</g>
	<g id="profile-p626c4a0" transform="matrix(1 0 0 1 63 56)">
		<g id="profile-u625f450">
			<text id="profile-b626c090" transform="matrix(1.0383 0 0 1 -62.9999 -40.4116)" font-family="'Verdana'" font-size="5.1638">-20</text>
		</g>
	</g>
	<g id="profile-p626a5a0" transform="matrix(1 0 0 1 213 56)">
		<g id="profile-u626d8f0">
			<text id="profile-b626a190" transform="matrix(0.9894 0 0 1 -145.441 -40.4116)" font-family="'Verdana'" font-size="5.1638">10</text>
		</g>
	</g>
	<g id="profile-p6269460" transform="matrix(1 0 0 1 263 56)">
		<g id="profile-u626bb50">
			<text id="profile-b6269050" transform="matrix(1.0491 0 0 1 -175.6459 -40.4116)" font-family="'Verdana'" font-size="5.1638">20</text>
		</g>
	</g>
	<g id="profile-p625f040" transform="matrix(1 0 0 1 166 31)">
		<g id="profile-u6268be0">
			
				<text id="profile-b6263230" transform="matrix(1.0595 0 0 1 -153.0904 -26.1694)" font-family="'Verdana-Bold'" font-size="5.5941">Temperature (deg C)</text>
		</g>
	</g>
</g>
</svg>
