<?xml version="1.0" encoding="utf-8"?>
<!-- Generator: Adobe Illustrator 18.1.1, SVG Export Plug-In . SVG Version: 6.00 Build 0)  -->
<svg version="1.1" id="series" xmlns="http://www.w3.org/2000/svg" xmlns:xlink="http://www.w3.org/1999/xlink" x="0px" y="0px"
	 viewBox="0 0 700.0796 205.1836" enable-background="new 0 0 700.0796 205.1836" xml:space="preserve" onload="on_load(evt)">

	 <script type="text/javascript" xlink:href="../../../shared/api/epubsc_api.js" />
	 <script type="text/javascript" xlink:href="../../../shared/js/util.js" />
     <script type="text/javascript" xlink:href="../js/tw-widget-series.js" />

	<g id="P_Depth9" transform="matrix(3.40 0 0 -5.0 62 102)">
		<polyline id="B_Depth9" style="fill:none;stroke-width:0.5;stroke:#FF0000;" points="0,0 0,0" />
	</g>
	<g id="P_Depth8" transform="matrix(3.40 0 0 -5.0 62 102)">
		<polyline id="B_Depth8" style="fill:none;stroke-width:0.5;stroke:#FF5000;" points="0,0 0,0" />
	</g>
	<g id="P_Depth7" transform="matrix(3.40 0 0 -5.0 62 102)">
		<polyline id="B_Depth7" style="fill:none;stroke-width:0.5;stroke:#FF9000;" points="0,0 0,0" />
	</g>
	<g id="P_Depth6" transform="matrix(3.40 0 0 -5.0 62 102)">
		<polyline id="B_Depth6" style="fill:none;stroke-width:0.5;stroke:#FFB000;" points="0,0 0,0" />
	</g>
	<g id="P_Depth5" transform="matrix(3.40 0 0 -5.0 62 102)">
		<polyline id="B_Depth5" style="fill:none;stroke-width:0.5;stroke:#FFD000;" points="0,0 0,0" />
	</g>
	<g id="P_Depth4" transform="matrix(3.40 0 0 -5.0 62 102)">
		<polyline id="B_Depth4" style="fill:none;stroke-width:0.5;stroke:#FFFF00;" points="0,0 0,0" />
	</g>
	<g id="P_Depth3" transform="matrix(3.40 0 0 -5.0 62 102)">
		<polyline id="B_Depth3" style="fill:none;stroke-width:0.5;stroke:#C0FF00;" points="0,0 0,0" />
	</g>
	<g id="P_Depth2" transform="matrix(3.40 0 0 -5.0 62 102)">
		<polyline id="B_Depth2" style="fill:none;stroke-width:0.5;stroke:#80FF00;" points="0,0 0,0" />
	</g>
	<g id="P_Depth1" transform="matrix(3.40 0 0 -5.0 62 102)">
		<polyline id="B_Depth1" style="fill:none;stroke-width:0.5;stroke:#40FF00;" points="0,0 0,0" />
	</g>
	<g id="P_Depth0" transform="matrix(3.40 0 0 -5.0 62 102)">
		<polyline id="B_Depth0" style="fill:none;stroke-width:0.5;stroke:#FF00FF;" points="0,0 0,0" />
	</g>


<!-- circle cx="62" cy="7" r="10" stroke="black" stroke-width="1" fill="red" / -->

<g id="series-p6299290" transform="matrix(1 0 0 1 412 460)">
	<g id="series-u629b9c0">
		
			<rect id="series-b629ae60" x="-350.2953" y="-453.9264" fill="none" stroke="#000000" stroke-width="2" width="573.3392" height="189.9078"/>
	</g>
</g>
<g id="series-p62634a0" transform="matrix(1 0 0 1 543 30)">
	<g id="series-u6266440">
	</g>
</g>
<g id="series-p62614f0" transform="matrix(7.044875e-016 -1 1 7.044875e-016 56 457)">
	<g id="series-u62646d0">
		<text id="series-b62610f0" transform="matrix(1.0595 0 0 1 277.3605 -45.237)" font-family="'Verdana-Bold'" font-size="12.4644">Temperature (deg C)</text>
	</g>
</g>
<g id="series-p6261f70" transform="matrix(1 0 0 1 107 361)">
	<g id="series-u6262720">
		<polygon id="series-b6261bd0" fill="none" stroke="#000000" stroke-width="2" points="-54.937,-354.9264 -47.3614,-354.9264 
			-47.3614,-354.9264 		"/>
	</g>
</g>
<g id="series-p625d4e0" transform="matrix(1 0 0 1 107 411)">
	<g id="series-u6254220">
		<polygon id="series-b625d0e0" fill="none" stroke="#000000" stroke-width="2" points="-54.937,-357.062 -47.3614,-357.062 
			-47.3614,-357.062 		"/>
	</g>
</g>
<g id="series-p625b4f0" transform="matrix(1 0 0 1 107 511)">
	<g id="series-u625e890">
		<polygon id="series-b625b0f0" fill="none" stroke="#000000" stroke-width="2" points="-54.937,-361.1612 -47.3614,-361.1612 
			-47.3614,-361.1612 		"/>
	</g>
</g>
<g id="series-p62594e0" transform="matrix(1 0 0 1 107 461)">
	<g id="series-u625c8a0">
		<polygon id="series-b62590e0" fill="none" stroke="#000000" stroke-width="2" points="-54.937,-359.0255 -47.3614,-359.0255 
			-47.3614,-359.0255 		"/>
	</g>
</g>
<g id="series-p6258180" transform="matrix(1 0 0 1 107 559)">
	<g id="series-u625a8b0">
		<polygon id="series-b6259d60" fill="none" stroke="#000000" stroke-width="2" points="-54.937,-363.0186 -47.3614,-363.0186 
			-47.3614,-363.0186 		"/>
	</g>
</g>
<g id="series-p62544b0" transform="matrix(1 0 0 1 89 411)">
	<g id="series-u6246360">
		<text id="series-b62540a0" transform="matrix(1.1184 0 0 1 -55.2273 -353.1239)" font-family="'Verdana'" font-size="11.5055">10</text>
	</g>
</g>
<g id="series-p6252560" transform="matrix(1 0 0 1 89 361)">
	<g id="series-u62558e0">
		<text id="series-b6252150" transform="matrix(1.0491 0 0 1 -59.0616 -351.0647)" font-family="'Verdana'" font-size="11.5055">20</text>
	</g>
</g>
<g id="series-p6251420" transform="matrix(1 0 0 1 89 461)">
	<g id="series-u6253b10">
		<text id="series-b6251010" transform="matrix(1.0191 0 0 1 -55.2271 -355.1846)" font-family="'Verdana'" font-size="11.5055">0</text>
	</g>
</g>
<g id="series-p6226140" transform="matrix(1 0 0 1 89 511)">
	<g id="series-u6250e80">
		<text id="series-b623e3a0" transform="matrix(1.1056 0 0 1 -58.1026 -357.245)" font-family="'Verdana'" font-size="11.5055">-10</text>
	</g>
</g>
<g id="series-p624c670" transform="matrix(1 0 0 1 89 561)">
	<g id="series-u624fbd0">
		<text id="series-b624c260" transform="matrix(1.0383 0 0 1 -61.9384 -359.3047)" font-family="'Verdana'" font-size="11.5055">-20</text>
	</g>
</g>
<g id="series-pf00140" transform="matrix(1 0 0 1 716 361)">
	<g id="series-uf18ea0">
		<polygon id="series-bf14400" fill="none" stroke="#000000" stroke-width="2" points="-80.0953,-354.9264 -72.3475,-354.9264 
			-72.3475,-354.9264 		"/>
	</g>
</g>
<g id="series-pf14670" transform="matrix(1 0 0 1 716 411)">
	<g id="series-uf17c10">
		<polygon id="series-bf14260" fill="none" stroke="#000000" stroke-width="2" points="-80.0953,-357.062 -72.3475,-357.062 
			-72.3475,-357.062 		"/>
	</g>
</g>
<g id="series-pf12680" transform="matrix(1 0 0 1 716 511)">
	<g id="series-uf15c20">
		<polygon id="series-bf12280" fill="none" stroke="#000000" stroke-width="2" points="-80.0953,-361.1612 -72.3475,-361.1612 
			-72.3475,-361.1612 		"/>
	</g>
</g>
<g id="series-pf11500" transform="matrix(1 0 0 1 716 461)">
	<g id="series-uf13c30">
		<polygon id="series-bf110f0" fill="none" stroke="#000000" stroke-width="2" points="-80.0953,-359.0255 -72.3475,-359.0255 
			-72.3475,-359.0255 		"/>
	</g>
</g>
<g id="series-pf04e90" transform="matrix(1 0 0 1 716 559)">
	<g id="series-uf10ef0">
		<polygon id="series-bf0ca80" fill="none" stroke="#000000" stroke-width="2" points="-80.0953,-363.0186 -72.3475,-363.0186 
			-72.3475,-363.0186 		"/>
	</g>
</g>
<g id="series-pf0ccf0" transform="matrix(1 0 0 1 733 411)">
	<g id="series-uf0e050">
		<text id="series-bf0c8e0" transform="matrix(1.1184 0 0 1 -81.7633 -353.1239)" font-family="'Verdana'" font-size="11.5055">10</text>
	</g>
</g>
<g id="series-pf0af10" transform="matrix(1 0 0 1 733 361)">
	<g id="series-uf0df10">
		<text id="series-bf0ab00" transform="matrix(1.0491 0 0 1 -85.5973 -351.0647)" font-family="'Verdana'" font-size="11.5055">20</text>
	</g>
</g>
<g id="series-pf09dd0" transform="matrix(1 0 0 1 733 461)">
	<g id="series-uf0a4e0">
		<text id="series-bf099d0" transform="matrix(1.0191 0 0 1 -81.7642 -355.1846)" font-family="'Verdana'" font-size="11.5055">0</text>
	</g>
</g>
<g id="series-pef7030" transform="matrix(1 0 0 1 733 511)">
	<g id="series-uf06840">
		<text id="series-beffc10" transform="matrix(1.1056 0 0 1 -84.6391 -357.245)" font-family="'Verdana'" font-size="11.5055">-10</text>
	</g>
</g>
<g id="series-pf04d10" transform="matrix(1 0 0 1 733 561)">
	<g id="series-uf06030">
		<text id="series-bf04900" transform="matrix(1.0383 0 0 1 -88.4744 -359.3047)" font-family="'Verdana'" font-size="11.5055">-20</text>
	</g>
</g>
<g id="series-pf014a0" transform="matrix(7.044875e-016 -1 1 7.044875e-016 771 457)">
	<g id="series-uf05f10">
		<text id="series-bf01090" transform="matrix(1.0595 0 0 1 277.3605 -74.6995)" font-family="'Verdana-Bold'" font-size="12.4644">Temperature (deg C)</text>
	</g>
</g>
</svg>
