<?xml version="1.0" encoding="utf-8"?>
<svg  version="1.1" xmlns="http://www.w3.org/2000/svg" xmlns:xlink="http://www.w3.org/1999/xlink"
	 width="350" height="172" viewBox="0 0 350 172" xml:space="preserve" font-family="Arial,sans-serif" font-size="14">
<linearGradient id="XMLID_32_" gradientUnits="userSpaceOnUse" x1="175" y1="1" x2="175" y2="171">
	<stop  offset="5.617978e-003" style="stop-color:#B3B0D8"/>
	<stop  offset="0.2827" style="stop-color:#B7B9DA"/>
	<stop  offset="0.8176" style="stop-color:#C7D3E4"/>
	<stop  offset="1" style="stop-color:#CFDFE9"/>
	<stop  offset="1" style="stop-color:#C8DAE5"/>
	<stop  offset="1" style="stop-color:#B7CBDA"/>
	<stop  offset="1" style="stop-color:#9DB6CC"/>
	<stop  offset="1" style="stop-color:#98B2CA"/>
	<stop  offset="1" style="stop-color:#A7BCD1"/>
	<stop  offset="1" style="stop-color:#C3D1DF"/>
	<stop  offset="1" style="stop-color:#DAE3EC"/>
	<stop  offset="1" style="stop-color:#EBEFF4"/>
	<stop  offset="1" style="stop-color:#FAFAFC"/>
	<stop  offset="1" style="stop-color:#FFFFFF"/>
</linearGradient>
<path fill="url(#XMLID_32_)" d="M1,1c0,2,0,168,0,170c2,0,346,0,348,0c0-2,0-168,0-170C347,1,3,1,1,1z"/>
<path d="M350,0H0v172h350v-2l0,0l0,0V0L350,0z M2,2h346v168H2V2L2,2z"/>
<g fill="#FFFFFF" stroke="#000000">
<path d="M98.2,150.5v-41.7c0,0-1.5-9.2-3.3-14S84.5,73,82.3,69.7s-9.6-12.9-11.1-16.6
	s-1.5-8.5-0.7-10.7s7.7-9.2,18.1-8.9s35.1,8.1,46.1,16.2s12.5,11.8,16.2,17s11.8,21.8,13.7,28.4s2.2,9.6,2.2,12.9s0,41.7,0,41.7
	s-7.7,7.4-17.3,8.5s-24,3-33.9,0S98.2,150.5,98.2,150.5z"/>
<path d="M24.7,149c0,0-0.7-27.3-0.4-32.8s5.5-14.8,7.7-17.3s8.5-13.3,18.8-13.3s16.2,4.8,20.3,10
	s8.5,11.8,10.7,15.9s3,5.9,3,8.1S86,149,86,150.1s-4.4,7.8-22.5,9.2s-22.1-0.4-32.1-3.7C24.7,153.5,24.7,149,24.7,149z"/>
<path d="M32.8,33.2c0,0-1.1,3.3,1.5,4.8s4.1,1.8,6.6-0.7s0.7-4.8,0.7-4.8s-3-1.5-5.2-1.5
	S32.8,33.2,32.8,33.2z"/>
<path d="M51.8,32c0,0-3,0.5-3,2.3s-0.3,2.8,1,4s3.5,3.5,7,3.8s5,0.8,6.8-0.8S66,38,66,36
	s-1-3.3-3.8-4.3S51.8,32,51.8,32z"/>
<path d="M249.9,150.5v-41.7c0,0,1.5-9.2,3.3-14s10.3-21.8,12.5-25.1s9.6-12.9,11.1-16.6
	s1.5-8.5,0.7-10.7c-0.7-2.2-7.7-9.2-18.1-8.9c-10.3,0.4-35.1,8.1-46.1,16.2s-12.5,11.8-16.2,17s-11.8,21.8-13.7,28.4
	c-1.8,6.6-2.2,9.6-2.2,12.9s0,41.7,0,41.7s7.7,7.4,17.3,8.5c9.6,1.1,24,3,33.9,0C242.5,155.3,249.9,150.5,249.9,150.5z"/>
<path d="M323.3,149c0,0,0.7-27.3,0.4-32.8s-5.5-14.8-7.7-17.3s-8.5-13.3-18.8-13.3
	s-16.2,4.8-20.3,10c-4.1,5.2-8.5,11.8-10.7,15.9c-2.2,4.1-3,5.9-3,8.1s-1.1,29.5-1.1,30.6s4.4,7.8,22.5,9.2s22.1-0.4,32.1-3.7
	C323.3,153.5,323.3,149,323.3,149z"/>
<path d="M315.2,33.2c0,0,1.1,3.3-1.5,4.8s-4.1,1.8-6.6-0.7s-0.7-4.8-0.7-4.8s3-1.5,5.2-1.5
	C313.7,31,315.2,33.2,315.2,33.2z"/>
<path d="M296.3,32c0,0,3,0.5,3,2.3s0.3,2.8-1,4s-3.5,3.5-7,3.8s-5,0.8-6.8-0.8S282,38,282,36
	s1-3.3,3.8-4.3S296.3,32,296.3,32z"/>
</g>
<path fill="none" stroke="#7F3F40" d="M1.5,24c10.5,0,76,0,83.5,0s37,7,47.5,12.5s30.5,18,43,17.5S202,45,210,40s40-16,58-16
	s80.5,0,80.5,0"/>
<g>
	<g>
		<line fill="none" stroke="#1C164B" stroke-dasharray="5" x1="189.5" y1="143.5" x2="186.5" y2="143.5"/>
		<path fill="#1C164B" d="M184.1,144.5c1.7,0.5,2.7,1,4.1,1.5v-5c-0.5,0.2-2.4,1-4.1,1.5c-1.8,0.5-3.4,0.9-4.4,1
			C180.8,143.6,182.4,144,184.1,144.5z"/>
	</g>
</g>
<text transform="matrix(1 0 0 1 192.5 146.5)">eyewall</text>
<text transform="matrix(1 0 0 1 4 17)">tropopause</text>
<g>
	<g>
		<path fill="none" stroke="#1C164B" d="M64,33.5c-11,2-30,11.5-34,16"/>
		<path fill="#1C164B" d="M30.7,48.7l4.1,0.8l0,0.1l-5.6,2.8c-1.7,1.2-3.4,2.5-5.1,3.7c1-1.8,2-3.7,3.1-5.5l2.2-5.9l0.1-0.1
			L30.7,48.7z"/>
	</g>
</g>
<g>
	<g>
		<path fill="none" stroke="#1C164B" d="M14,84.5c-1.5,8.5,0.5,33.5,1,38"/>
		<path fill="#1C164B" d="M14.9,121.5l3.3-2.6l0.1,0.1l-1.7,6.1c-0.2,2.1-0.4,4.2-0.7,6.3c-0.7-2-1.3-4-2-6l-3-5.6l0-0.1L14.9,121.5
			z"/>
	</g>
</g>
<line fill="none" stroke="#1C164B" x1="22" y1="152.5" x2="62.5" y2="152.5"/>
<path fill="#1C164B" d="M61.5,152.5l-2.2-3.6l0.1-0.1l5.9,2.3c2,0.5,4.1,0.9,6.1,1.4c-2,0.5-4.1,0.9-6.1,1.4l-5.9,2.3l-0.1-0.1
	L61.5,152.5z"/>
<path fill="none" stroke="#1C164B" d="M74,147.5C80,142,85.5,128,85,121"/>
<path fill="#1C164B" d="M85.1,122l-3.4,2.4l-0.1-0.1l1.9-6c0.3-2.1,0.6-4.1,0.9-6.2c0.6,2,1.2,4,1.8,6l2.7,5.7l-0.1,0.1L85.1,122z"
	/>
<line fill="none" stroke="#1C164B" x1="93" y1="152.5" x2="133.5" y2="152.5"/>
<path fill="#1C164B" d="M132.5,152.5l-2.2-3.6l0.1-0.1l5.9,2.3c2,0.5,4.1,0.9,6.1,1.4c-2,0.5-4.1,0.9-6.1,1.4l-5.9,2.3l-0.1-0.1
	L132.5,152.5z"/>
<g>
	<g>
		<path fill="none" stroke="#1C164B" d="M112.5,101.5c-7.5-8-26.5-16-32-16"/>
		<path fill="#1C164B" d="M81.5,85.5l2.2,3.6l-0.1,0.1l-5.9-2.3c-2-0.5-4.1-0.9-6.1-1.4c2-0.5,4.1-0.9,6.1-1.4l5.9-2.3l0.1,0.1
			L81.5,85.5z"/>
	</g>
</g>
<path fill="none" stroke="#1C164B" d="M142.5,130c3-13,3.5-35,3-38"/>
<path fill="#1C164B" d="M145.7,93l-3.2,2.8l-0.1-0.1l1.3-6.2c0.1-2.1,0.2-4.2,0.3-6.3c0.8,1.9,1.6,3.9,2.3,5.8l3.3,5.4l0,0.1
	L145.7,93z"/>
<g>
	<g>
		<path fill="none" stroke="#1C164B" d="M134,55.5c-5.5-8.5-23-19-31.5-20"/>
		<path fill="#1C164B" d="M103.5,35.6l1.8,3.8l-0.1,0.1l-5.6-3c-2-0.7-4-1.4-5.9-2.1c2.1-0.2,4.2-0.4,6.3-0.6l6.1-1.6l0.1,0.1
			L103.5,35.6z"/>
	</g>
</g>
<path fill="none" stroke="#1C164B" d="M165.5,32c3.5,11,4.5,37.5,0.5,44"/>
<path fill="#1C164B" d="M166.5,75.1l4.2,0l0,0.1l-5.1,3.8c-1.5,1.5-2.9,3-4.4,4.5c0.7-2,1.4-4,2.1-5.9l1.1-6.2l0.1-0.1L166.5,75.1z"
	/>
<path fill="none" stroke="#1C164B" stroke-dasharray="5" d="M149,53.5c9,11.5,18.5,25,19.5,34s2.5,18,2.5,24.5s-0.5,41.5-0.5,41.5"
	/>
<g>
	<g>
		<path fill="none" stroke="#1C164B" d="M287.2,33.5c11,2,30,11.5,34,16"/>
		<path fill="#1C164B" d="M320.5,48.7l1.2-4l0.1,0l2.2,5.9c1,1.8,2,3.7,3.1,5.5c-1.7-1.2-3.4-2.5-5.1-3.7l-5.6-2.8l0-0.1L320.5,48.7
			z"/>
	</g>
</g>
<g>
	<g>
		<path fill="none" stroke="#1C164B" d="M337.2,84.5c1.5,8.5-0.5,33.5-1,38"/>
		<path fill="#1C164B" d="M336.3,121.5l3.8-1.8l0.1,0.1l-3,5.6c-0.7,2-1.3,4-2,6c-0.2-2.1-0.4-4.2-0.7-6.3l-1.7-6.1l0.1-0.1
			L336.3,121.5z"/>
	</g>
</g>
<line fill="none" stroke="#1C164B" x1="323.2" y1="152.5" x2="282.7" y2="152.5"/>
<path fill="#1C164B" d="M283.7,152.5l2.2-3.6l-0.1-0.1l-5.9,2.3c-2,0.5-4.1,0.9-6.1,1.4c2,0.5,4.1,0.9,6.1,1.4l5.9,2.3l0.1-0.1
	L283.7,152.5z"/>
<path fill="none" stroke="#1C164B" d="M270.2,147.5c-6-5.5-11.5-19.5-11-26.5"/>
<path fill="#1C164B" d="M259.1,122l3.4,2.4l0.1-0.1l-1.9-6c-0.3-2.1-0.6-4.1-0.9-6.2c-0.6,2-1.2,4-1.8,6l-2.7,5.7l0.1,0.1L259.1,122
	z"/>
<line fill="none" stroke="#1C164B" x1="251.2" y1="152.5" x2="210.7" y2="152.5"/>
<path fill="#1C164B" d="M211.7,152.5l2.2-3.6l-0.1-0.1l-5.9,2.3c-2,0.5-4.1,0.9-6.1,1.4c2,0.5,4.1,0.9,6.1,1.4l5.9,2.3l0.1-0.1
	L211.7,152.5z"/>
<g>
	<g>
		<path fill="none" stroke="#1C164B" d="M232.7,101.5c7.5-8,26.5-16,32-16"/>
		<path fill="#1C164B" d="M263.7,85.5l-2.2-3.6l0.1-0.1l5.9,2.3c2,0.5,4.1,0.9,6.1,1.4c-2,0.5-4.1,0.9-6.1,1.4l-5.9,2.3l-0.1-0.1
			L263.7,85.5z"/>
	</g>
</g>
<path fill="none" stroke="#1C164B" d="M208.7,130c-3-13-3.5-35-3-38"/>
<path fill="#1C164B" d="M205.5,93l3.2,2.8l0.1-0.1l-1.3-6.2c-0.1-2.1-0.2-4.2-0.3-6.3c-0.8,1.9-1.6,3.9-2.3,5.8l-3.3,5.4l0,0.1
	L205.5,93z"/>
<g>
	<g>
		<path fill="none" stroke="#1C164B" d="M217.2,55.5c5.5-8.5,23-19,31.5-20"/>
		<path fill="#1C164B" d="M247.7,35.6l-2.6-3.3l0.1-0.1l6.1,1.6c2.1,0.2,4.2,0.4,6.3,0.6c-2,0.7-4,1.4-5.9,2.1l-5.6,3l-0.1,0
			L247.7,35.6z"/>
	</g>
</g>
<path fill="none" stroke="#1C164B" d="M186.7,33c-3.5,11-4.5,37.5-0.5,44"/>
<path fill="#1C164B" d="M185.7,76.1l-4.2,0l0,0.1l5.1,3.8c1.5,1.5,2.9,3,4.4,4.5c-0.7-2-1.4-4-2.1-5.9l-1.1-6.2l-0.1-0.1L185.7,76.1
	z"/>
<line fill="none" stroke="#1C164B" x1="175.5" y1="60.5" x2="175.5" y2="113"/>
<path fill="#1C164B" d="M175.5,112l3.6-2.2l0.1,0.1l-2.3,5.9c-0.5,2-0.9,4.1-1.4,6.1c-0.5-2-0.9-4.1-1.4-6.1l-2.3-5.9l0.1-0.1
	L175.5,112z"/>
<path fill="none" stroke="#1C164B" stroke-dasharray="5" d="M200,53c-9,11.5-18.5,25-19.5,34s-2.5,18-2.5,24.5s0.5,41.5,0.5,41.5"/>
</svg>
